<svg width="48" height="48" viewBox="0 0 48 48" fill="none" xmlns="http://www.w3.org/2000/svg">
<rect width="48" height="48" rx="24" fill="#CA2734"/>
<path d="M19.5167 22.9917C20.7167 25.35 22.65 27.275 25.0083 28.4833L26.8417 26.65C27.0667 26.425 27.4 26.35 27.6917 26.45C28.625 26.7583 29.6333 26.925 30.6667 26.925C31.125 26.925 31.5 27.3 31.5 27.7583V30.6667C31.5 31.125 31.125 31.5 30.6667 31.5C22.8417 31.5 16.5 25.1583 16.5 17.3333C16.5 16.875 16.875 16.5 17.3333 16.5H20.25C20.7083 16.5 21.0833 16.875 21.0833 17.3333C21.0833 18.375 21.25 19.375 21.5583 20.3083C21.65 20.6 21.5833 20.925 21.35 21.1583L19.5167 22.9917Z" fill="white"/>
</svg>
